HIERARCHY
ROOT Hips
{
	OFFSET -3.958830 18.904000 13.208200
	CHANNELS 6 Xposition Yposition Zposition Zrotation Yrotation Xrotation 
	JOINT LHipJoint
	{
		OFFSET 0.000000 0.000000 0.000000
		CHANNELS 3 Zrotation Yrotation Xrotation
		JOINT LeftUpLeg
		{
			OFFSET 1.800000 -1.400000 0.085000
			CHANNELS 3 Zrotation Yrotation Xrotation
			JOINT LeftLeg
			{
				OFFSET 2.215000 -6.000000 0.000000
				CHANNELS 3 Zrotation Yrotation Xrotation
				JOINT LeftFoot
				{
					OFFSET 2.500000 -6.900000 0.000000
					CHANNELS 3 Zrotation Yrotation Xrotation
					JOINT LeftToeBase
					{
						OFFSET 0.200000 -0.500000 1.950000
						CHANNELS 3 Zrotation Yrotation Xrotation
						End Site
						{
							OFFSET 0.000000 0.000000 0.000000
						}
					}
				}
			}
		}
	}
	JOINT RHipJoint
	{
		OFFSET 0.000000 0.000000 0.000000
		CHANNELS 3 Zrotation Yrotation Xrotation
		JOINT RightUpLeg
		{
			OFFSET -1.800000 -1.400000 0.085000
			CHANNELS 3 Zrotation Yrotation Xrotation
			JOINT RightLeg
			{
				OFFSET -2.215000 -6.000000 0.000000
				CHANNELS 3 Zrotation Yrotation Xrotation
				JOINT RightFoot
				{
					OFFSET -2.500000 -6.900000 0.000000
					CHANNELS 3 Zrotation Yrotation Xrotation
					JOINT RightToeBase
					{
						OFFSET -0.200000 -0.500000 1.950000
						CHANNELS 3 Zrotation Yrotation Xrotation
						End Site
						{
							OFFSET 0.000000 0.000000 0.000000
						}
					}
				}
			}
		}
	}
	JOINT LowerBack
	{
		OFFSET 0.000000 0.000000 0.000000
		CHANNELS 3 Zrotation Yrotation Xrotation
		JOINT Spine
		{
			OFFSET -0.087000 1.940000 -0.288900
			CHANNELS 3 Zrotation Yrotation Xrotation
			JOINT Spine1
			{
				OFFSET 0.000000 1.950000 0.060000
				CHANNELS 3 Zrotation Yrotation Xrotation
				JOINT Neck
				{
					OFFSET 0.000000 0.000000 0.000000
					CHANNELS 3 Zrotation Yrotation Xrotation
					JOINT Neck1
					{
						OFFSET 0.000000 1.600000 0.340000
						CHANNELS 3 Zrotation Yrotation Xrotation
						JOINT Head
						{
							OFFSET 0.000000 1.667000 -0.240000
							CHANNELS 3 Zrotation Yrotation Xrotation
							End Site
							{
								OFFSET 0.000000 0.000000 0.000000
							}
						}
					}
				}
				JOINT LeftShoulder
				{
					OFFSET 0.000000 0.000000 0.000000
					CHANNELS 3 Zrotation Yrotation Xrotation
					JOINT LeftArm
					{
						OFFSET 2.700000 1.550000 -0.730000
						CHANNELS 3 Zrotation Yrotation Xrotation
						JOINT LeftForeArm
						{
							OFFSET 5.450000 0.000000 0.000000
							CHANNELS 3 Zrotation Yrotation Xrotation
							JOINT LeftHand
							{
								OFFSET 3.450000 0.000000 0.000000
								CHANNELS 3 Zrotation Yrotation Xrotation
								JOINT LeftHandIndex1
								{
									OFFSET 0.750000 0.000000 0.000000
									CHANNELS 3 Zrotation Yrotation Xrotation
									End Site
									{
										OFFSET 0.000000 0.000000 0.000000
									}
								}
							}
						}
					}
				}
				JOINT RightShoulder
				{
					OFFSET 0.000000 0.000000 0.000000
					CHANNELS 3 Zrotation Yrotation Xrotation
					JOINT RightArm
					{
						OFFSET -2.700000 1.550000 -0.730000
						CHANNELS 3 Zrotation Yrotation Xrotation
						JOINT RightForeArm
						{
							OFFSET -5.450000 0.000000 0.000000
							CHANNELS 3 Zrotation Yrotation Xrotation
							JOINT RightHand
							{
								OFFSET -3.450000 0.000000 0.000000
								CHANNELS 3 Zrotation Yrotation Xrotation
								JOINT RightHandIndex1
								{
									OFFSET -0.750000 0.000000 0.000000
									CHANNELS 3 Zrotation Yrotation Xrotation
									End Site
									{
										OFFSET 0.000000 0.000000 0.000000
									}
								}
							}
						}
					}
				}
			}
		}
	}
}
MOTION
Frames: 10
Frame Time: 0.016667
0.432430 16.562440 -2.713780 0.580462 11.998106 3.110092 -15.325108 12.552325 2.744946 -2.380276 -5.548283 -14.924179 -2.195302 8.112817 39.962866 0.085848 7.747948 2.339346 -0.346450 -0.777890 -0.551340 18.436360 -9.507893 3.879442 -10.398301 3.614141 -44.193941 9.193580 -16.009354 51.978251 -0.672575 -9.248341 1.444689 -0.242090 1.236490 0.108330 -3.690504 -2.305061 -7.559122 5.664065 -4.228155 6.976235 -8.097345 -3.143010 3.587146 1.670260 -3.164848 -5.240662 -7.116950 -1.030082 28.554856 0.343520 -5.926470 11.309550 -17.061997 4.992158 0.025887 -57.821955 -10.638428 -0.576435 -32.506658 -65.616220 17.116715 -4.277667 3.305953 0.085550 0.730430 -0.855110 0.267150 13.513670 -4.223160 1.610814 54.152211 -3.046876 -7.622688 3.066348 12.925092 -1.014140 2.078111 -1.268848 -0.579140 0.463830 0.495050 0.007510 
0.425870 16.520190 -2.729740 0.519191 12.249924 2.547850 -15.337000 12.521254 2.772313 -2.140913 -5.838202 -14.862499 -2.372050 8.351686 40.954671 0.121946 7.906932 2.259733 -0.302480 -0.736440 -0.491430 18.428196 -9.385234 4.040741 -11.049133 3.583574 -45.507548 9.255781 -17.036042 54.538943 -0.850423 -9.736583 1.274680 -0.239470 1.163910 0.100190 -3.657009 -2.429525 -7.791097 5.316932 -4.453978 8.563386 -8.175051 -3.337248 2.742480 1.900251 -3.112590 -5.446563 -7.362874 -0.783442 30.021060 1.112110 -5.900570 9.960680 -18.263003 4.289859 -0.020808 -56.414752 -10.320930 -0.979462 -32.980082 -67.144003 17.871509 -4.206829 3.273371 0.165030 0.656690 -0.778390 0.261970 14.300662 -3.607373 1.872774 53.185259 -3.484215 -7.553557 2.756152 12.052210 -0.915426 2.107532 -1.213418 -0.569040 0.471490 0.466970 -0.011950 
0.420300 16.443040 -2.767950 0.301175 12.902288 1.374346 -15.340116 12.452832 2.853478 -1.808613 -6.568567 -14.921255 -2.356616 8.636349 43.265240 0.218589 8.239541 2.100246 -0.229050 -0.666050 -0.396400 18.424805 -9.208234 4.291968 -12.418544 3.190605 -47.376802 9.696345 -19.051520 58.350035 -1.148771 -10.547046 1.002607 -0.245870 1.035700 0.104680 -3.646607 -2.595316 -8.211849 5.204427 -4.888256 11.608487 -8.684362 -3.699153 1.185238 2.415790 -3.090800 -5.914390 -7.996222 -0.568287 32.943278 2.153450 -5.984740 7.883220 -20.620198 2.772806 -0.140073 -53.563298 -10.058975 -1.626268 -32.890255 -69.674982 18.642533 -4.093079 3.237647 0.283050 0.539590 -0.648410 0.250430 15.661673 -2.222515 2.573400 51.800775 -4.525400 -7.490347 1.861222 10.442774 -0.749230 2.160732 -1.138598 -0.528350 0.457390 0.419740 -0.038670 
0.401850 16.363010 -2.814300 -0.422787 13.134237 -0.214958 -15.328928 12.368546 2.938521 -0.333319 -7.456499 -15.230822 -3.227163 9.633916 46.184348 0.360897 8.793549 1.844448 -0.133720 -0.556410 -0.280710 18.431252 -9.011304 4.551167 -13.289726 3.143988 -49.098138 10.083253 -21.182726 62.508779 -1.479559 -11.390107 0.742587 -0.236480 0.871840 0.106310 -3.664649 -2.741491 -8.647856 5.540622 -5.328746 15.284219 -9.217521 -3.956786 -0.162537 2.990331 -3.106455 -6.665142 -8.829226 -0.369523 36.335456 3.050050 -5.863540 4.858100 -22.704328 0.796930 -0.082069 -50.487541 -9.799719 -2.582546 -32.193788 -72.629828 19.018048 -3.964552 3.206734 0.397420 0.411560 -0.501350 0.225170 16.615254 -0.280483 3.616741 50.861278 -5.844257 -7.804573 0.592508 10.154189 -0.599809 2.191398 -1.073024 -0.467170 0.431750 0.360940 -0.072030 
0.383210 16.315910 -2.854440 -1.514664 12.934272 -2.351903 -15.302526 12.382328 3.020660 1.626362 -8.132436 -14.931199 -4.481467 10.849891 48.492609 0.498516 9.327614 1.602973 -0.033310 -0.453640 -0.154530 18.424503 -8.928597 4.667596 -13.285597 3.277194 -49.392944 10.026926 -22.709014 65.906395 -1.765895 -11.992927 0.555428 -0.228210 0.699040 0.105300 -3.693312 -2.884229 -8.974311 6.303003 -5.884091 19.189206 -9.863224 -4.184534 -1.488925 3.691615 -3.265125 -7.591956 -10.128413 0.345018 40.592571 3.911590 -5.456620 2.007370 -25.461410 -1.466651 0.022337 -46.798337 -9.134028 -3.850012 -31.011315 -74.580876 18.676033 -3.813145 3.193637 0.519130 0.273840 -0.355550 0.201530 17.971675 2.080216 5.040873 49.644971 -7.873841 -8.519617 -0.437040 11.759341 -0.488623 2.195481 -1.030289 -0.411240 0.396350 0.295190 -0.112850 
0.366290 16.299430 -2.883000 -2.615464 12.401271 -4.167209 -15.255827 12.457011 3.067439 3.485089 -8.448378 -14.500070 -5.493666 11.776739 49.694896 0.572468 9.672061 1.436798 0.018840 -0.395700 -0.093640 18.432725 -8.943337 4.648205 -12.325385 3.687072 -48.840138 9.231266 -23.038621 68.097866 -1.922553 -12.234327 0.478819 -0.227380 0.589970 0.094350 -3.776401 -2.984958 -9.102050 7.617088 -6.662311 22.169596 -10.724784 -4.497745 -2.517003 4.132038 -4.099343 -8.514244 -12.676850 1.725730 43.946183 5.265920 -5.537460 -0.470120 -27.028583 -3.093333 0.166395 -44.021803 -8.251752 -5.166684 -28.194955 -75.081344 16.558110 -3.692150 3.167032 0.613050 0.169580 -0.259710 0.176730 18.597607 4.290221 6.332764 49.226621 -9.401054 -9.192244 -1.822915 13.035131 -0.424749 2.191630 -0.982663 -0.381250 0.388340 0.272320 -0.134730 
0.351540 16.296610 -2.891210 -3.569286 11.682478 -5.001634 -15.202680 12.498558 3.103390 5.228114 -8.586462 -14.666151 -6.444609 12.564577 50.220407 0.639824 9.904256 1.337783 0.046760 -0.357910 -0.091200 18.464759 -8.994404 4.541410 -10.851715 4.174682 -48.019819 8.005733 -22.496934 69.173468 -1.966837 -12.226387 0.492791 -0.227540 0.555420 0.086500 -3.898444 -3.015014 -9.080754 9.195036 -7.506180 23.232714 -11.735644 -4.855225 -2.833046 4.286766 -5.222760 -9.251140 -15.561093 3.303789 45.099965 6.656610 -5.927150 -1.226440 -26.668399 -3.836855 0.357755 -43.342284 -7.698972 -6.217626 -23.049529 -74.212738 12.349291 -3.615018 3.147671 0.637550 0.122680 -0.226040 0.182490 17.850642 5.724349 7.144827 49.841117 -10.051929 -9.791616 -2.775782 14.016201 -0.443540 2.189733 -0.976859 -0.354070 0.383430 0.256870 -0.123120 
0.333090 16.306100 -2.878110 -4.199407 10.961517 -4.891627 -15.168188 12.546435 3.146017 6.630714 -8.492753 -15.162282 -7.368873 13.152577 49.852314 0.660420 10.025259 1.303529 -0.000010 -0.410480 -0.144980 18.480350 -9.081667 4.390746 -9.082810 4.651597 -46.836455 6.759692 -21.303445 68.838752 -1.893962 -11.966283 0.579073 -0.258200 0.597040 0.089620 -3.970608 -3.017750 -9.005391 10.368475 -7.892325 22.880307 -12.463028 -4.966470 -3.222726 4.431707 -5.853474 -9.501582 -17.083123 4.038288 44.827434 6.650410 -6.196140 0.080370 -25.313954 -3.128712 0.273055 -44.273940 -7.514587 -6.247737 -20.643357 -72.136155 10.284733 -3.637235 3.115564 0.623360 0.144140 -0.252210 0.185230 16.152072 5.405492 7.302883 50.769260 -10.588911 -10.458346 -2.806875 15.320895 -0.463369 2.171706 -0.971211 -0.362720 0.388350 0.287660 -0.106730 
0.317300 16.328520 -2.833640 -4.297810 10.526264 -3.987799 -15.146493 12.630709 3.180589 7.083777 -8.256081 -15.568688 -7.823616 13.208276 48.729805 0.613780 9.959555 1.334814 -0.101550 -0.554360 -0.214140 18.479998 -9.226846 4.195653 -7.507526 4.745890 -45.161537 5.876529 -19.783122 66.765608 -1.687854 -11.436399 0.734466 -0.318260 0.668400 0.088450 -4.010445 -3.015630 -8.880098 11.021756 -7.826972 21.107519 -13.268183 -4.995257 -3.768003 4.615008 -6.029212 -9.266454 -17.315095 4.172733 43.714668 5.891520 -6.299750 3.280280 -23.406790 -1.072299 -0.149635 -46.159133 -7.829763 -5.275194 -19.819984 -68.759986 9.516549 -3.724639 3.091811 0.583050 0.206150 -0.340920 0.157070 13.805769 3.359030 6.937146 52.107033 -11.273715 -11.265227 -1.875089 17.237348 -0.443555 2.143835 -0.973627 -0.403890 0.372340 0.356220 -0.113050 
0.291070 16.372980 -2.784190 -3.719878 10.187291 -2.704466 -15.158749 12.738449 3.210978 6.695700 -7.894033 -15.883281 -7.991084 12.981546 47.273026 0.598771 9.744692 1.441528 -0.188840 -0.649750 -0.293720 18.445911 -9.384222 4.001406 -6.312289 4.698932 -43.351626 5.361636 -17.893173 63.224454 -1.423065 -10.637378 0.973570 -0.363030 0.760380 0.092220 -3.953386 -3.024502 -8.728676 10.219642 -7.259271 18.961999 -13.118889 -4.887141 -4.072707 4.407136 -6.009394 -8.683757 -16.802714 4.147851 42.038864 5.576960 -6.325570 6.149440 -20.723481 1.841745 -0.633191 -49.573521 -8.764824 -3.780514 -19.290600 -63.869049 8.768902 -3.817370 3.069007 0.505150 0.276620 -0.417670 0.159230 11.557817 0.423942 6.046740 52.584390 -11.091990 -11.421279 0.014175 18.463997 -0.331930 2.147230 -0.990891 -0.420840 0.368270 0.396510 -0.081830 
